<svg width="72" height="72" viewBox="0 0 72 72" fill="none" xmlns="http://www.w3.org/2000/svg">
<g clip-path="url(#clip0_1401_5606)">
<path d="M29.466 31.1661C29.2786 30.8506 28.8662 30.7426 28.5414 30.9238L23.2578 33.9022C22.9633 34.0678 22.7812 34.3763 22.7812 34.7074C22.7812 35.0385 22.9633 35.347 23.2578 35.5125L28.5414 38.491C28.6485 38.5502 28.7645 38.5798 28.8787 38.5798C29.1126 38.5798 29.3392 38.4613 29.466 38.2487C29.6534 37.9333 29.5427 37.5289 29.2179 37.3459L24.5341 34.7056L29.2179 32.0653C29.5409 31.8823 29.6516 31.4798 29.466 31.1626V31.1661Z" fill="#121212"/>
<path d="M41.347 34.7085C41.347 34.3774 41.1649 34.0689 40.8704 33.9034L35.5868 30.925C35.2638 30.742 34.8496 30.85 34.6622 31.1672C34.4748 31.4826 34.5855 31.887 34.9103 32.07L39.5941 34.7103L34.9103 37.3506C34.5873 37.5336 34.4766 37.9362 34.6622 38.2533C34.7872 38.466 35.0156 38.5845 35.2495 38.5845C35.3637 38.5845 35.4797 38.5566 35.5868 38.4956L40.8704 35.5172C41.1649 35.3516 41.347 35.0431 41.347 34.712V34.7085Z" fill="#121212"/>
<path d="M32.8934 27.7501C32.5257 27.6944 32.1776 27.9383 32.1187 28.2991L30.1856 40.1814C30.1266 40.5421 30.3783 40.8802 30.7478 40.9377C30.7835 40.943 30.8192 40.9465 30.8549 40.9465C31.1816 40.9465 31.4689 40.7147 31.5225 40.3888L33.4556 28.5065C33.5145 28.1457 33.2628 27.8076 32.8934 27.7501Z" fill="#121212"/>
<path d="M15.3844 17.0996H12.8247C12.4516 17.0996 12.1482 17.3959 12.1482 17.7601C12.1482 18.1244 12.4516 18.4206 12.8247 18.4206H15.3844C15.7574 18.4206 16.0609 18.1244 16.0609 17.7601C16.0609 17.3959 15.7574 17.0996 15.3844 17.0996Z" fill="#121212"/>
<path d="M20.1986 17.0996H17.6389C17.2658 17.0996 16.9624 17.3959 16.9624 17.7601C16.9624 18.1244 17.2658 18.4206 17.6389 18.4206H20.1986C20.5716 18.4206 20.8751 18.1244 20.8751 17.7601C20.8751 17.3959 20.5716 17.0996 20.1986 17.0996Z" fill="#121212"/>
<path d="M25.0108 17.0996H22.4512C22.0781 17.0996 21.7747 17.3959 21.7747 17.7601C21.7747 18.1244 22.0781 18.4206 22.4512 18.4206H25.0108C25.3839 18.4206 25.6873 18.1244 25.6873 17.7601C25.6873 17.3959 25.3839 17.0996 25.0108 17.0996Z" fill="#121212"/>
<path d="M53.4954 12H10.6346C9.18165 12 8 13.1537 8 14.5723V47.1954C8 48.6141 9.18165 49.7678 10.6346 49.7678H38.8747V48.4468H10.6346C9.92777 48.4468 9.35301 47.8856 9.35301 47.1954V23.22H51.0768C51.4498 23.22 51.7533 22.9237 51.7533 22.5595C51.7533 22.1953 51.4498 21.899 51.0768 21.899H9.35301V14.5723C9.35301 13.8822 9.92777 13.321 10.6346 13.321H53.4954C54.2023 13.321 54.777 13.8822 54.777 14.5723V39.9176C55.2465 40.0866 55.6981 40.2923 56.1301 40.5276V14.5723C56.1301 13.1537 54.9484 12 53.4954 12Z" fill="#121212"/>
<path d="M59.7339 53.4996L59.7428 53.5083C60.1908 52.7642 60.5407 51.9573 60.7674 51.1016H60.7531C60.53 51.9433 60.1873 52.7502 59.7339 53.5014V53.4996Z" fill="#00FF00"/>
<path d="M43.1514 43.9814L43.1425 43.9727C42.6945 44.7168 42.3446 45.5237 42.1179 46.3794H42.1322C42.3553 45.5359 42.698 44.7308 43.1514 43.9796V43.9814Z" fill="#00FF00"/>
<path d="M53.8596 39.6509C54.1702 39.7293 54.4772 39.8234 54.7789 39.9332V39.9193C54.479 39.8112 54.1738 39.7171 53.8596 39.6387V39.6526V39.6509Z" fill="#00FF00"/>
<path d="M49.0258 39.6507V39.6367C48.1494 39.8581 47.3212 40.1979 46.5608 40.6371L46.5697 40.6458C47.339 40.2031 48.1637 39.8703 49.0276 39.6507H49.0258Z" fill="#00FF00"/>
<path d="M53.8595 57.8291V57.8431C54.7359 57.6217 55.5641 57.2819 56.3245 56.8427L56.3156 56.834C55.5462 57.2767 54.7216 57.6095 53.8577 57.8291H53.8595Z" fill="#00FF00"/>
<path d="M60.7531 46.3814H60.7674C60.5407 45.5257 60.1926 44.717 59.7428 43.9746L59.7339 43.9833C60.1873 44.7345 60.53 45.5396 60.7531 46.3831V46.3814Z" fill="#00FF00"/>
<path d="M56.3158 40.6439L56.3247 40.6352C56.2604 40.5986 56.1962 40.562 56.1301 40.5254V40.5393C56.1926 40.5742 56.2551 40.6073 56.3158 40.6422V40.6439Z" fill="#00FF00"/>
<path d="M42.1322 51.0994H42.1179C42.3446 51.9551 42.6927 52.7638 43.1425 53.5062L43.1514 53.4975C42.698 52.7463 42.3571 51.9412 42.1322 51.0977V51.0994Z" fill="#00FF00"/>
<path d="M46.568 56.8359L46.5591 56.8447C47.3213 57.2821 48.1477 57.6237 49.0241 57.845V57.8311C48.1602 57.6132 47.3355 57.2786 46.5662 56.8359H46.568Z" fill="#00FF00"/>
<path d="M51.4427 43.1738C48.2993 43.1738 45.7415 45.6712 45.7415 48.7403C45.7415 51.8093 48.2993 54.3067 51.4427 54.3067C54.586 54.3067 57.1439 51.8093 57.1439 48.7403C57.1439 45.6712 54.586 43.1738 51.4427 43.1738ZM51.4427 52.9839C49.0454 52.9839 47.0945 51.0791 47.0945 48.7385C47.0945 46.398 49.0454 44.4931 51.4427 44.4931C53.8399 44.4931 55.7909 46.398 55.7909 48.7385C55.7909 51.0791 53.8399 52.9839 51.4427 52.9839Z" fill="#D02670"/>
<path d="M62.863 46.3812H60.7532C60.5301 45.5394 60.1873 44.7325 59.734 43.9814L59.7429 43.9727L61.228 42.5227C61.6707 42.0905 61.6707 41.3864 61.228 40.9542L59.418 39.187C58.9753 38.7548 58.2542 38.7548 57.8115 39.187L56.3264 40.637L56.3175 40.6457C56.255 40.6109 56.1926 40.576 56.1319 40.5429V40.5289C55.6999 40.2937 55.2483 40.088 54.7789 39.919V39.9329C54.479 39.8249 54.172 39.7308 53.8596 39.6506V37.5906C53.8596 36.9789 53.3491 36.4805 52.7226 36.4805H50.1629C49.5364 36.4805 49.0259 36.9789 49.0259 37.5906V39.6506C48.162 39.8684 47.3373 40.203 46.568 40.6457L46.5591 40.637L45.074 39.187C44.6313 38.7548 43.9102 38.7548 43.4675 39.187L41.6575 40.9542C41.2149 41.3864 41.2149 42.0905 41.6575 42.5227L43.1426 43.9727L43.1516 43.9814C42.6982 44.7325 42.3572 45.5377 42.1323 46.3812H40.0225C39.396 46.3812 38.8855 46.8796 38.8855 47.4914V48.4481H38.8748V49.7692H38.8855V49.9922C38.8855 50.604 39.396 51.1024 40.0225 51.1024H42.1323C42.3555 51.9442 42.6982 52.7511 43.1516 53.5022L43.1426 53.5109L41.6575 54.9609C41.4433 55.17 41.3237 55.4489 41.3237 55.7452C41.3237 56.0414 41.4415 56.3203 41.6557 56.5294L43.4657 58.2966C43.9084 58.7288 44.6295 58.7288 45.0722 58.2966L46.5573 56.8466L46.5662 56.8379C47.3355 57.2805 48.1602 57.6134 49.0241 57.833V59.893C49.0241 60.5047 49.5346 61.0031 50.1611 61.0031H52.7208C53.3473 61.0031 53.8578 60.5047 53.8578 59.893V57.833C54.7218 57.6152 55.5464 57.2805 56.3157 56.8379L56.3247 56.8466L57.8098 58.2966C58.2524 58.7288 58.9736 58.7288 59.4162 58.2966L61.2262 56.5294C61.4404 56.3203 61.5582 56.0414 61.5582 55.7452C61.5582 55.4489 61.4404 55.17 61.2262 54.9609L59.7411 53.5109L59.7322 53.5022C60.1856 52.7511 60.5265 51.9459 60.7514 51.1024H62.8612C63.4878 51.1024 63.9983 50.604 63.9983 49.9922V47.4931C63.9983 46.8814 63.4878 46.3829 62.8612 46.3829L62.863 46.3812ZM42.7678 41.7402L44.2725 40.271L45.4292 41.4003L45.7326 41.6966C46.1057 42.0608 46.6787 42.1288 47.1267 41.8604C47.8657 41.4178 48.6671 41.0936 49.5078 40.8967C50.0201 40.7764 50.3789 40.3338 50.3789 39.8179V37.8032H52.5066V39.8179C52.5066 40.3338 52.8654 40.7764 53.3777 40.8967C54.2184 41.0936 55.0198 41.4178 55.7588 41.8604C56.2069 42.1288 56.7798 42.0626 57.1529 41.6984L57.4563 41.4021L58.613 40.2728L60.1177 41.7419L58.9611 42.8712L58.6576 43.1675C58.2846 43.5318 58.2167 44.0912 58.4916 44.5286C58.945 45.2501 59.277 46.0326 59.4787 46.8535C59.6019 47.3537 60.0553 47.704 60.5836 47.704H62.647V49.7814H60.5836C60.057 49.7814 59.6019 50.1317 59.4787 50.6318C59.277 51.4527 58.945 52.2352 58.4916 52.9567C58.2167 53.3941 58.2846 53.9536 58.6576 54.3178L58.9611 54.6141L60.1177 55.7434L58.613 57.2126L57.4563 56.0833L57.1529 55.787C56.7798 55.4227 56.2069 55.3565 55.7588 55.6232C55.0198 56.0658 54.2184 56.39 53.3777 56.5869C52.8654 56.7072 52.5066 57.1498 52.5066 57.6657V59.6804H50.3789V57.6657C50.3789 57.1498 50.0201 56.7072 49.5078 56.5869C48.6671 56.39 47.8657 56.0658 47.1249 55.6232C46.6769 55.3548 46.1039 55.4227 45.7308 55.787L45.4274 56.0833L44.2707 57.2126L42.766 55.7434L43.9227 54.6141L44.2261 54.3178C44.5992 53.9536 44.6688 53.3941 44.3939 52.9567C43.9405 52.2352 43.6085 51.4527 43.4068 50.6318C43.2836 50.1317 42.8303 49.7814 42.3019 49.7814H40.2385V47.704H42.3019C42.8285 47.704 43.2836 47.3537 43.4068 46.8535C43.6085 46.0326 43.9405 45.2501 44.3939 44.5286C44.6688 44.0912 44.601 43.5318 44.2279 43.1675" fill="#D02670"/>
</g>
<defs>
<clipPath id="clip0_1401_5606">
<rect width="56" height="49" fill="white" transform="translate(8 12)"/>
</clipPath>
</defs>
</svg>
