<svg width="416" height="148" viewBox="0 0 416 148" fill="none" xmlns="http://www.w3.org/2000/svg">
<path d="M169.1 2.40039H178.3C188.6 2.40039 194.9 9.30041 194.9 18.2004C194.9 27.2004 188 34.0004 178.4 34.0004H169V2.40039H169.1ZM173.9 6.70041V29.7004H178.1C185.4 29.7004 190.3 24.7004 190.3 18.2004C190.3 11.6004 185.9 6.70041 178 6.70041H173.9Z" fill="white"/>
<path d="M202.3 0.300781C204.3 0.300781 205.6 1.7008 205.6 3.6008C205.6 5.5008 204.2 6.90079 202.3 6.90079C200.3 6.90079 199 5.5008 199 3.6008C199 1.7008 200.4 0.300781 202.3 0.300781ZM200 10.7008H204.7V34.1008H200V10.7008Z" fill="white"/>
<path d="M208.2 29.4012L212.3 27.0012C213.5 29.3012 215.3 30.5012 218.2 30.5012C221 30.5012 222.3 29.0012 222.3 27.2012C222.3 22.3012 209.1 26.3012 209.1 17.2012C209.1 13.6012 212.5 10.2012 217.8 10.2012C222.4 10.2012 225.1 11.8012 227.1 14.7012L223.1 17.3011C222 15.4011 220.5 14.2012 217.8 14.2012C215 14.2012 213.8 15.6012 213.8 17.2012C213.8 22.0012 226.9 18.0011 226.9 27.3011C226.9 30.7011 224.1 34.8012 217.9 34.7012C213.3 34.5012 210.1 32.8012 208.2 29.4012Z" fill="white"/>
<path d="M230.5 22.4012C230.5 15.5012 235.9 10.2012 242.7 10.2012C247.9 10.2012 252 13.2012 253.8 17.4012L249.6 19.2012C248.4 16.3012 245.9 14.6012 242.7 14.6012C238.3 14.6012 235.1 18.1012 235.1 22.4012C235.1 26.7012 238.4 30.2012 242.8 30.2012C246.1 30.2012 248.6 28.1012 249.7 25.4012L254 27.2012C252.1 31.5012 248.2 34.6012 242.8 34.6012C235.8 34.6012 230.5 29.2012 230.5 22.4012Z" fill="white"/>
<path d="M256.9 22.4012C256.9 15.6012 262.3 10.2012 269.1 10.2012C275.9 10.2012 281.3 15.6012 281.3 22.4012C281.3 29.2012 275.9 34.6012 269.1 34.6012C262.3 34.6012 256.9 29.2012 256.9 22.4012ZM276.6 22.4012C276.6 18.1012 273.3 14.6012 269 14.6012C264.7 14.6012 261.5 18.1012 261.5 22.4012C261.5 26.7012 264.8 30.2012 269 30.2012C273.3 30.2012 276.6 26.7012 276.6 22.4012Z" fill="white"/>
<path d="M282.7 10.7012H287.7L294.4 28.3011L301.4 10.7012H306.3L296.6 34.1012H292L282.7 10.7012Z" fill="white"/>
<path d="M307.6 22.5012C307.6 15.6012 312.9 10.2012 319.8 10.2012C326.7 10.2012 331.8 15.2012 331.8 22.2012V24.2012H312.1C312.8 28.0012 315.7 30.5012 320 30.5012C323.3 30.5012 325.5 29.0012 326.9 26.7012L330.8 29.0012C328.5 32.4012 325.2 34.6012 320.1 34.6012C312.6 34.6012 307.6 29.3012 307.6 22.5012ZM312.3 20.1012H327.1C326.4 16.4012 323.7 14.3011 319.8 14.3011C316.1 14.3011 313.2 16.7012 312.3 20.1012Z" fill="white"/>
<path d="M336.4 10.7012H341V14.7012C342.2 12.0012 344.6 10.7012 347.7 10.7012H349.7V15.5012H347C343.3 15.5012 341.2 17.1012 341.2 21.5012V34.1012H336.5V10.7012H336.4Z" fill="white"/>
<path d="M351.9 7.5C351.9 5 353.9 3 356.4 3C358.9 3 360.9 5 360.9 7.5C360.9 10 358.9 12 356.4 12C353.9 12 351.9 10 351.9 7.5ZM359.8 7.5C359.8 5.6 358.3 4.10001 356.5 4.10001C354.6 4.10001 353.2 5.6 353.2 7.5C353.2 9.4 354.6 10.9 356.5 10.9C358.3 10.8 359.8 9.3 359.8 7.5ZM354.7 5.20001H356.7C357.9 5.20001 358.6 5.99999 358.6 6.79999C358.6 7.39999 358.3 8.00001 357.7 8.20001L358.6 9.60001H357.3L356.6 8.39999H356V9.60001H354.8V5.20001H354.7ZM355.9 6.20001V7.39999H356.5C357 7.39999 357.3 7.29999 357.3 6.79999C357.3 6.29999 356.9 6.20001 356.5 6.20001H355.9Z" fill="white"/>
<path d="M177 58.9016H168V54.6016H190.7V58.9016H181.7V86.3015H177V58.9016Z" fill="white"/>
<path d="M189.2 74.6008C189.2 67.7008 194.5 62.3008 201.4 62.3008C208.3 62.3008 213.4 67.3008 213.4 74.3008V76.3008H193.7C194.4 80.1008 197.3 82.6008 201.6 82.6008C204.9 82.6008 207.1 81.1008 208.5 78.8008L212.4 81.1008C210.1 84.5008 206.8 86.7008 201.7 86.7008C194.2 86.7008 189.2 81.4008 189.2 74.6008ZM193.8 72.2008H208.6C207.9 68.5008 205.2 66.4008 201.3 66.4008C197.6 66.4008 194.8 68.9008 193.8 72.2008Z" fill="white"/>
<path d="M217.1 74.5008C217.1 67.6008 222.5 62.3008 229.3 62.3008C234.5 62.3008 238.6 65.3008 240.4 69.5008L236.2 71.3008C235 68.4008 232.5 66.7008 229.3 66.7008C224.9 66.7008 221.7 70.2008 221.7 74.5008C221.7 78.8008 225 82.3008 229.4 82.3008C232.7 82.3008 235.2 80.2008 236.3 77.5008L240.6 79.3008C238.7 83.6008 234.8 86.7008 229.4 86.7008C222.4 86.7008 217.1 81.3008 217.1 74.5008Z" fill="white"/>
<path d="M244.7 52H249.3V65.9C251 63.7 253.6 62.3 256.7 62.3C262.6 62.3 266.3 66.2 266.3 72.6V86.2H261.5V73C261.5 69 259.5 66.4 255.5 66.4C252 66.4 249.2 69 249.2 73.3V86.2H244.5V52H244.7Z" fill="white"/>
<path d="M271.8 62.8004H276.4V66.1004C278 63.8004 280.6 62.4004 283.9 62.4004C289.8 62.4004 293.5 66.3004 293.5 72.7004V86.3004H288.8V73.0004C288.8 69.0004 286.7 66.4004 282.8 66.4004C279.2 66.4004 276.5 69.0004 276.5 73.3004V86.2004H271.8V62.8004Z" fill="white"/>
<path d="M297.9 74.5008C297.9 67.7008 303.3 62.3008 310.1 62.3008C316.9 62.3008 322.3 67.7008 322.3 74.5008C322.3 81.3008 316.9 86.7008 310.1 86.7008C303.3 86.7008 297.9 81.3008 297.9 74.5008ZM317.7 74.5008C317.7 70.2008 314.4 66.7008 310.1 66.7008C305.8 66.7008 302.6 70.2008 302.6 74.5008C302.6 78.8008 305.9 82.3008 310.1 82.3008C314.4 82.3008 317.7 78.8008 317.7 74.5008Z" fill="white"/>
<path d="M326.8 52H331.5V86.2H326.8V52Z" fill="white"/>
<path d="M336.1 74.5008C336.1 67.7008 341.5 62.3008 348.3 62.3008C355.1 62.3008 360.5 67.7008 360.5 74.5008C360.5 81.3008 355.1 86.7008 348.3 86.7008C341.5 86.7008 336.1 81.3008 336.1 74.5008ZM355.8 74.5008C355.8 70.2008 352.5 66.7008 348.2 66.7008C343.9 66.7008 340.7 70.2008 340.7 74.5008C340.7 78.8008 344 82.3008 348.2 82.3008C352.5 82.3008 355.8 78.8008 355.8 74.5008Z" fill="white"/>
<path d="M364.2 74.5008C364.2 67.1008 369.7 62.3008 376 62.3008C379.2 62.3008 382.2 63.8008 384 66.1008V62.8008H388.7V84.4008C388.7 91.3008 383.4 96.1008 376.7 96.1008C371.7 96.1008 368.3 94.7008 365.8 92.1008L369.4 88.8008C371.1 90.8008 373.2 91.7008 376.6 91.7008C381.1 91.7008 384.1 88.7008 384.1 84.5008V82.7008C382.3 85.2008 379.2 86.7008 376 86.7008C369.8 86.7008 364.2 81.8008 364.2 74.5008ZM384.2 74.5008C384.2 70.2008 380.9 66.6008 376.5 66.6008C372.2 66.6008 368.8 70.1008 368.8 74.5008C368.8 78.9008 372.2 82.4008 376.5 82.4008C381 82.4008 384.2 78.8008 384.2 74.5008Z" fill="white"/>
<path d="M392.8 91.2008H394.9C398.2 91.2008 399.6 90.1008 401.1 86.8008L401.8 85.1008L392.2 62.8008H397.2L404.3 79.6008L411 62.8008H416L405.2 88.1008C402.9 93.7008 400 95.6008 394.9 95.6008H392.7V91.2008H392.8Z" fill="white"/>
<path d="M179.1 106.602H183.9L196.1 138.302H191.2L188.6 131.502H174.3L171.8 138.302H166.8L179.1 106.602ZM176 127.102H187L181.5 112.602L176 127.102Z" fill="white"/>
<path d="M197.7 126.6C197.7 119.7 203.1 114.4 209.9 114.4C215.1 114.4 219.2 117.4 221 121.6L216.8 123.4C215.6 120.5 213.1 118.8 209.9 118.8C205.5 118.8 202.3 122.3 202.3 126.6C202.3 130.9 205.6 134.4 210 134.4C213.3 134.4 215.8 132.3 216.9 129.6L221.2 131.4C219.3 135.7 215.4 138.8 210 138.8C203 138.8 197.7 133.4 197.7 126.6Z" fill="white"/>
<path d="M224.2 132.201C224.2 127.601 227.1 125.401 233.5 124.601C238.1 124.001 239.6 123.701 239.6 122.001C239.6 120.401 238.3 118.301 234.7 118.301C231.7 118.301 229.7 119.501 228.8 122.801L224.3 120.901C226.3 116.401 229.9 114.301 234.6 114.301C240.6 114.301 244.2 117.501 244.2 123.201V138.301H239.7V134.701C238.4 137.401 235.6 138.801 232.1 138.801C227.4 138.801 224.2 136.101 224.2 132.201ZM237.9 132.901C239 131.901 239.8 130.401 239.8 128.801V126.801C239.7 127.701 238.2 127.901 234.6 128.401C230.6 128.901 229 129.901 229 132.001C229 133.701 230.5 134.901 232.8 134.901C234.9 134.701 236.5 134.101 237.9 132.901Z" fill="white"/>
<path d="M248.6 126.6C248.6 119.2 254.1 114.4 260.4 114.4C263.5 114.4 266.6 115.8 268.4 118.1V104H273V138.3H268.4V134.9C266.6 137.3 263.5 138.8 260.4 138.8C254.3 138.8 248.6 134 248.6 126.6ZM268.7 126.6C268.7 122.3 265.4 118.7 261 118.7C256.7 118.7 253.3 122.2 253.3 126.6C253.3 131 256.7 134.5 261 134.5C265.4 134.5 268.7 131 268.7 126.6Z" fill="white"/>
<path d="M277.5 126.7C277.5 119.8 282.8 114.4 289.7 114.4C296.6 114.4 301.7 119.4 301.7 126.4V128.4H282C282.7 132.2 285.6 134.7 289.9 134.7C293.2 134.7 295.4 133.2 296.8 130.9L300.7 133.2C298.4 136.6 295.1 138.8 290 138.8C282.5 138.8 277.5 133.5 277.5 126.7ZM282.2 124.4H297C296.3 120.7 293.6 118.6 289.7 118.6C286 118.5 283.1 121 282.2 124.4Z" fill="white"/>
<path d="M306.3 114.9H310.9V117.6C312.3 115.6 314.5 114.4 317.5 114.4C321.2 114.4 323.7 116 325 118.5C326.5 116 329.2 114.4 332.6 114.4C339 114.4 342 118.3 342 124.3V138.3H337.2V124.5C337.2 120.9 335.6 118.5 331.9 118.5C328.6 118.5 326.4 120.7 326.4 125V138.3H321.7V124.2C321.7 120.6 320.1 118.5 316.5 118.5C313 118.5 310.9 120.8 310.9 125.2V138.3H306.2V114.9H306.3Z" fill="white"/>
<path d="M344.8 143.3H346.9C350.2 143.3 351.6 142.2 353.1 138.9L353.8 137.2L344.2 114.9H349.2L356.3 131.7L363 114.9H368L357.2 140.2C354.9 145.8 352 147.7 346.9 147.7H344.7V143.3H344.8Z" fill="white"/>
<path d="M8 18.4004C12.4183 18.4004 16 14.8187 16 10.4004C16 5.98211 12.4183 2.40039 8 2.40039C3.58172 2.40039 0 5.98211 0 10.4004C0 14.8187 3.58172 18.4004 8 18.4004Z" fill="#EC6B29"/>
<path d="M32 18.4004C36.4183 18.4004 40 14.8187 40 10.4004C40 5.98211 36.4183 2.40039 32 2.40039C27.5817 2.40039 24 5.98211 24 10.4004C24 14.8187 27.5817 18.4004 32 18.4004Z" fill="#EC6B29"/>
<path d="M8 42.4004C12.4183 42.4004 16 38.8187 16 34.4004C16 29.9821 12.4183 26.4004 8 26.4004C3.58172 26.4004 0 29.9821 0 34.4004C0 38.8187 3.58172 42.4004 8 42.4004Z" fill="#EC6B29"/>
<path d="M32 42.4004C36.4183 42.4004 40 38.8187 40 34.4004C40 29.9821 36.4183 26.4004 32 26.4004C27.5817 26.4004 24 29.9821 24 34.4004C24 38.8187 27.5817 42.4004 32 42.4004Z" fill="#EC6B29"/>
<path d="M56 42.4004C60.4183 42.4004 64 38.8187 64 34.4004C64 29.9821 60.4183 26.4004 56 26.4004C51.5817 26.4004 48 29.9821 48 34.4004C48 38.8187 51.5817 42.4004 56 42.4004Z" fill="#EC6B29"/>
<path d="M80 42.4004C84.4183 42.4004 88 38.8187 88 34.4004C88 29.9821 84.4183 26.4004 80 26.4004C75.5817 26.4004 72 29.9821 72 34.4004C72 38.8187 75.5817 42.4004 80 42.4004Z" fill="#EC6B29"/>
<path d="M104 42.4004C108.418 42.4004 112 38.8187 112 34.4004C112 29.9821 108.418 26.4004 104 26.4004C99.5817 26.4004 96 29.9821 96 34.4004C96 38.8187 99.5817 42.4004 104 42.4004Z" fill="#EC6B29"/>
<path d="M128 42.4004C132.418 42.4004 136 38.8187 136 34.4004C136 29.9821 132.418 26.4004 128 26.4004C123.582 26.4004 120 29.9821 120 34.4004C120 38.8187 123.582 42.4004 128 42.4004Z" fill="#EC6B29"/>
<path d="M8 66.4004C12.4183 66.4004 16 62.8187 16 58.4004C16 53.9821 12.4183 50.4004 8 50.4004C3.58172 50.4004 0 53.9821 0 58.4004C0 62.8187 3.58172 66.4004 8 66.4004Z" fill="#EC6B29"/>
<path d="M32 66.4004C36.4183 66.4004 40 62.8187 40 58.4004C40 53.9821 36.4183 50.4004 32 50.4004C27.5817 50.4004 24 53.9821 24 58.4004C24 62.8187 27.5817 66.4004 32 66.4004Z" fill="#EC6B29"/>
<path d="M56 66.4004C60.4183 66.4004 64 62.8187 64 58.4004C64 53.9821 60.4183 50.4004 56 50.4004C51.5817 50.4004 48 53.9821 48 58.4004C48 62.8187 51.5817 66.4004 56 66.4004Z" fill="#EC6B29"/>
<path d="M80 66.4004C84.4183 66.4004 88 62.8187 88 58.4004C88 53.9821 84.4183 50.4004 80 50.4004C75.5817 50.4004 72 53.9821 72 58.4004C72 62.8187 75.5817 66.4004 80 66.4004Z" fill="#EC6B29"/>
<path d="M104 66.4004C108.418 66.4004 112 62.8187 112 58.4004C112 53.9821 108.418 50.4004 104 50.4004C99.5817 50.4004 96 53.9821 96 58.4004C96 62.8187 99.5817 66.4004 104 66.4004Z" fill="#EC6B29"/>
<path d="M128 66.4004C132.418 66.4004 136 62.8187 136 58.4004C136 53.9821 132.418 50.4004 128 50.4004C123.582 50.4004 120 53.9821 120 58.4004C120 62.8187 123.582 66.4004 128 66.4004Z" fill="#EC6B29"/>
<path d="M8 90.4004C12.4183 90.4004 16 86.8187 16 82.4004C16 77.9821 12.4183 74.4004 8 74.4004C3.58172 74.4004 0 77.9821 0 82.4004C0 86.8187 3.58172 90.4004 8 90.4004Z" fill="#EC6B29"/>
<path d="M32 90.4004C36.4183 90.4004 40 86.8187 40 82.4004C40 77.9821 36.4183 74.4004 32 74.4004C27.5817 74.4004 24 77.9821 24 82.4004C24 86.8187 27.5817 90.4004 32 90.4004Z" fill="#EC6B29"/>
<path d="M56 90.4004C60.4183 90.4004 64 86.8187 64 82.4004C64 77.9821 60.4183 74.4004 56 74.4004C51.5817 74.4004 48 77.9821 48 82.4004C48 86.8187 51.5817 90.4004 56 90.4004Z" fill="#EC6B29"/>
<path d="M80 90.4004C84.4183 90.4004 88 86.8187 88 82.4004C88 77.9821 84.4183 74.4004 80 74.4004C75.5817 74.4004 72 77.9821 72 82.4004C72 86.8187 75.5817 90.4004 80 90.4004Z" fill="#EC6B29"/>
<path d="M104 90.4004C108.418 90.4004 112 86.8187 112 82.4004C112 77.9821 108.418 74.4004 104 74.4004C99.5817 74.4004 96 77.9821 96 82.4004C96 86.8187 99.5817 90.4004 104 90.4004Z" fill="#EC6B29"/>
<path d="M128 90.4004C132.418 90.4004 136 86.8187 136 82.4004C136 77.9821 132.418 74.4004 128 74.4004C123.582 74.4004 120 77.9821 120 82.4004C120 86.8187 123.582 90.4004 128 90.4004Z" fill="#EC6B29"/>
<path d="M8 114.4C12.4183 114.4 16 110.819 16 106.4C16 101.982 12.4183 98.4004 8 98.4004C3.58172 98.4004 0 101.982 0 106.4C0 110.819 3.58172 114.4 8 114.4Z" fill="#EC6B29"/>
<path d="M32 114.4C36.4183 114.4 40 110.819 40 106.4C40 101.982 36.4183 98.4004 32 98.4004C27.5817 98.4004 24 101.982 24 106.4C24 110.819 27.5817 114.4 32 114.4Z" fill="#EC6B29"/>
<path d="M56 114.4C60.4183 114.4 64 110.819 64 106.4C64 101.982 60.4183 98.4004 56 98.4004C51.5817 98.4004 48 101.982 48 106.4C48 110.819 51.5817 114.4 56 114.4Z" fill="#EC6B29"/>
<path d="M80 114.4C84.4183 114.4 88 110.819 88 106.4C88 101.982 84.4183 98.4004 80 98.4004C75.5817 98.4004 72 101.982 72 106.4C72 110.819 75.5817 114.4 80 114.4Z" fill="#EC6B29"/>
<path d="M104 114.4C108.418 114.4 112 110.819 112 106.4C112 101.982 108.418 98.4004 104 98.4004C99.5817 98.4004 96 101.982 96 106.4C96 110.819 99.5817 114.4 104 114.4Z" fill="#EC6B29"/>
<path d="M128 114.4C132.418 114.4 136 110.819 136 106.4C136 101.982 132.418 98.4004 128 98.4004C123.582 98.4004 120 101.982 120 106.4C120 110.819 123.582 114.4 128 114.4Z" fill="#EC6B29"/>
<path d="M8 138.4C12.4183 138.4 16 134.819 16 130.4C16 125.982 12.4183 122.4 8 122.4C3.58172 122.4 0 125.982 0 130.4C0 134.819 3.58172 138.4 8 138.4Z" fill="#EC6B29"/>
<path d="M32 138.4C36.4183 138.4 40 134.819 40 130.4C40 125.982 36.4183 122.4 32 122.4C27.5817 122.4 24 125.982 24 130.4C24 134.819 27.5817 138.4 32 138.4Z" fill="#EC6B29"/>
<path d="M56 138.4C60.4183 138.4 64 134.819 64 130.4C64 125.982 60.4183 122.4 56 122.4C51.5817 122.4 48 125.982 48 130.4C48 134.819 51.5817 138.4 56 138.4Z" fill="#EC6B29"/>
<path d="M80 138.4C84.4183 138.4 88 134.819 88 130.4C88 125.982 84.4183 122.4 80 122.4C75.5817 122.4 72 125.982 72 130.4C72 134.819 75.5817 138.4 80 138.4Z" fill="#EC6B29"/>
<path d="M104 138.4C108.418 138.4 112 134.819 112 130.4C112 125.982 108.418 122.4 104 122.4C99.5817 122.4 96 125.982 96 130.4C96 134.819 99.5817 138.4 104 138.4Z" fill="#EC6B29"/>
<path d="M128 138.4C132.418 138.4 136 134.819 136 130.4C136 125.982 132.418 122.4 128 122.4C123.582 122.4 120 125.982 120 130.4C120 134.819 123.582 138.4 128 138.4Z" fill="#EC6B29"/>
<path d="M56 18.4004C60.4183 18.4004 64 14.8187 64 10.4004C64 5.98211 60.4183 2.40039 56 2.40039C51.5817 2.40039 48 5.98211 48 10.4004C48 14.8187 51.5817 18.4004 56 18.4004Z" fill="#EC6B29"/>
<path d="M80 18.4004C84.4183 18.4004 88 14.8187 88 10.4004C88 5.98211 84.4183 2.40039 80 2.40039C75.5817 2.40039 72 5.98211 72 10.4004C72 14.8187 75.5817 18.4004 80 18.4004Z" fill="#EC6B29"/>
<path d="M104 18.4004C108.418 18.4004 112 14.8187 112 10.4004C112 5.98211 108.418 2.40039 104 2.40039C99.5817 2.40039 96 5.98211 96 10.4004C96 14.8187 99.5817 18.4004 104 18.4004Z" fill="#EC6B29"/>
<path d="M128 18.4004C132.418 18.4004 136 14.8187 136 10.4004C136 5.98211 132.418 2.40039 128 2.40039C123.582 2.40039 120 5.98211 120 10.4004C120 14.8187 123.582 18.4004 128 18.4004Z" fill="#EC6B29"/>
</svg>
