<?xml version="1.0" encoding="UTF-8"?><svg id="Layer_2" xmlns="http://www.w3.org/2000/svg" viewBox="0 0 174.1 49.02"><defs><style>.cls-1{fill:#ec6b29;}.cls-2{fill:#fff;}</style></defs><g id="final"><g><path class="cls-2" d="M42.6,43.86h-5.23c-.55,0-1-.45-1-1s.45-1,1-1h5.23c.55,0,1,.45,1,1s-.45,1-1,1Z"/><g><path class="cls-2" d="M68,43.86h-20.35c-.55,0-1-.45-1-1s.45-1,1-1h20.35c9.4,0,17.05-7.65,17.05-17.05s-7.65-17.05-17.05-17.05h-4.58c-.55,0-1-.45-1-1V3.03l-4.86,3.74,6.48,5.09c.43,.34,.51,.97,.17,1.4-.34,.43-.97,.51-1.4,.17l-7.49-5.88c-.24-.19-.38-.48-.38-.79s.15-.6,.39-.79L62.81,.21c.3-.23,.71-.27,1.05-.1,.34,.17,.56,.52,.56,.9V5.76h3.58c10.5,0,19.05,8.55,19.05,19.05s-8.55,19.05-19.05,19.05Z"/><path class="cls-2" d="M24.85,49.02c-.16,0-.32-.04-.47-.12-.32-.17-.53-.51-.53-.88v-4.16h-4.8C8.55,43.86,0,35.32,0,24.81S8.55,5.76,19.05,5.76h22.09c.55,0,1,.45,1,1s-.45,1-1,1H19.05C9.65,7.76,2,15.41,2,24.81s7.65,17.05,17.05,17.05h5.8c.55,0,1,.45,1,1v3.29l5.04-3.35-6.65-5.08c-.44-.33-.52-.96-.19-1.4,.33-.44,.96-.53,1.4-.19l7.76,5.93c.26,.2,.4,.5,.39,.83,0,.32-.18,.62-.45,.8l-7.76,5.16c-.17,.11-.36,.17-.55,.17Z"/><path class="cls-2" d="M51.14,7.76h-5.28c-.55,0-1-.45-1-1s.45-1,1-1h5.28c.55,0,1,.45,1,1s-.45,1-1,1Z"/><g><path class="cls-1" d="M68,28.29c-1.4,0-2.66-.83-3.2-2.12-.07-.15-.1-.32-.15-.48l-.1-.38h-17.66l-.1,.37c-.32,1.22-1.28,2.17-2.5,2.48-.32,.08-.59,.12-.86,.12-1.4,0-2.66-.83-3.2-2.12-.06-.15-.1-.3-.14-.46l-.1-.37-.39-.02H22.5l-.1,.38c-.04,.16-.08,.32-.15,.48-.26,.62-.7,1.15-1.26,1.53-.57,.39-1.25,.59-1.94,.59-1.16,0-2.23-.57-2.88-1.53-.12-.18-.23-.38-.32-.59-.18-.43-.27-.88-.27-1.35s.09-.92,.27-1.35c.09-.21,.19-.4,.32-.59,.65-.96,1.73-1.53,2.88-1.53,.7,0,1.37,.21,1.94,.59,.56,.38,1,.91,1.26,1.53,.06,.15,.1,.31,.14,.47l.1,.38h.39s17.12,0,17.12,0l.1-.38c.04-.17,.08-.33,.15-.48,.09-.21,.22-.44,.4-.68,.27-.38,.62-.7,1.04-.94,.25-.15,.53-.27,.82-.35,.36-.1,.66-.15,.95-.15,.93,0,1.8,.36,2.46,1.02,.42,.42,.73,.97,.89,1.58l.1,.37h17.66l.1-.38c.04-.17,.08-.33,.15-.48,.09-.22,.22-.44,.4-.68,.28-.38,.62-.7,1.04-.94,.25-.15,.53-.27,.82-.35,.36-.1,.66-.15,.95-.15,1.24,0,2.36,.65,2.99,1.74,.21,.36,.34,.7,.41,1.03,.05,.23,.07,.47,.07,.7s-.02,.47-.07,.7c-.26,1.28-1.26,2.33-2.55,2.65-.32,.08-.59,.12-.85,.12Zm0-5.95c-1.37,0-2.48,1.11-2.48,2.48s1.11,2.48,2.48,2.48,2.48-1.11,2.48-2.48-1.11-2.48-2.48-2.48Zm-24.55,0c-1.36,0-2.47,1.11-2.47,2.48s1.11,2.48,2.47,2.48,2.48-1.11,2.48-2.48-1.11-2.48-2.48-2.48Zm-24.4,0c-1.37,0-2.48,1.11-2.48,2.48s1.11,2.48,2.48,2.48,2.48-1.11,2.48-2.48-1.11-2.48-2.48-2.48Z"/><path class="cls-2" d="M68,21.84c.15,0,.3,.01,.45,.03-.15-.02-.3-.03-.45-.03,0,0-.02,0-.03,0,0,0,.02,0,.03,0m-24.55,0c.79,0,1.54,.31,2.1,.87,.06,.06,.13,.13,.18,.2-.55-.66-1.37-1.07-2.29-1.07,0,0-.02,0-.03,0,0,0,.02,0,.03,0m-24.4,0h0m0,0h0m0,0h0m.01,0h0m0,0s0,0,0,0c0,0,0,0,0,0m-.02,0s0,0,0,0c0,0,0,0,0,0m.02,0h0m-.03,0h0m.04,0c.59,0,1.16,.18,1.64,.51,.48,.32,.85,.78,1.08,1.31,0,.02,.01,.03,.02,.05-.44-1.09-1.5-1.86-2.74-1.87m-.04,0h0m-.95,.16c-1.17,.4-2.01,1.51-2.01,2.81,0-.4,.08-.79,.23-1.16,.07-.18,.17-.35,.27-.5,.37-.54,.9-.94,1.5-1.15m22.68,1.53c-.03,.06-.06,.12-.08,.18,0-.02,.01-.04,.02-.05,.02-.04,.04-.08,.06-.13m24.54,.01c-.03,.05-.05,.11-.07,.17,0-.02,.01-.03,.02-.05,.02-.04,.03-.08,.05-.12m5.58,.57s.02,.07,.02,.1c.04,.18,.06,.37,.06,.55,0-.23-.03-.44-.08-.66m-48.9,.24l.12,.47h.77l-.78,.02-.12,.44c.02-.15,.04-.31,.04-.46s-.01-.31-.04-.47m24.4,0l.12,.46h0l-.12,.47c.02-.15,.04-.31,.04-.47s-.01-.31-.04-.46m-5.88,0c-.02,.15-.04,.31-.04,.46s.01,.31,.04,.47l-.12-.47h-.77l.78-.03,.11-.44m24.55,0c-.02,.15-.04,.3-.04,.46s.01,.31,.04,.47l-.12-.47h-.77l.78-.02,.12-.44m5.92,.41h0s0,0,0,0m0,0s0,0,0,0c0,0,0,0,0,0m0,0h0s0,0,0,0m0,0s0,0,0,0c0,0,0,0,0,0m0,0h0s0,0,0,0m0,0h0s0,0,0,0m0,0s0,0,0,0c0,0,0,0,0,0m0,0h0s0,0,0,0m0,0h0s0,0,0,0m0,0h0s0,0,0,0m0,0h0s0,0,0,0m-54.9,0c0,1.3,.84,2.42,2.01,2.82-.61-.21-1.14-.61-1.51-1.15-.11-.16-.2-.33-.27-.51-.15-.37-.23-.76-.23-1.16m54.9,0h0s0,0,0,0m0,0h0s0,0,0,0m0,0s0,0,0,0c0,0,0,0,0,0m0,0h0s0,0,0,0m0,0h0s0,0,0,0m0,0s0,0,0,0c0,0,0,0,0,0m0,0h0s0,0,0,0m0,0s0,0,0,0c0,0,0,0,0,0m0,0h0s0,0,0,0m0,0c0,.19-.02,.37-.06,.55-.03,.13-.06,.26-.11,.39,.11-.3,.16-.61,.17-.94m-49.16,1.06s-.01,.04-.02,.05c-.23,.53-.6,.99-1.08,1.31-.49,.33-1.05,.5-1.64,.51,1.24,0,2.31-.78,2.74-1.87m18.87,0c.42,1.05,1.43,1.81,2.61,1.87-1.14-.06-2.14-.76-2.59-1.81,0-.02-.01-.03-.02-.05m24.55,0c.42,1.05,1.43,1.81,2.62,1.86-1.14-.05-2.15-.75-2.6-1.82,0-.02-.01-.03-.02-.05m-21.94,1.86s0,0,0,0c0,0,0,0,0,0m0,0s0,0,0,0c0,0,0,0,0,0m0,0s0,0,0,0c0,0,0,0,0,0m24.55,0s0,0,0,0c0,0,0,0,0,0m-24.55,0s0,0,0,0c0,0,0,0,0,0m24.55,0s0,0,0,0c0,0,0,0,0,0m-24.55,0s0,0,0,0c0,0,0,0,0,0m24.55,0s0,0,0,0c0,0,0,0,0,0m-24.55,0s0,0,0,0c0,0,0,0,0,0m24.55,0s0,0,0,0c0,0,0,0,0,0m-24.55,0s0,0,0,0c0,0,0,0,0,0m24.55,0s0,0,0,0c0,0,0,0,0,0m-24.55,0s0,0,0,0c0,0,0,0,0,0m24.56,0s0,0,0,0c0,0,0,0,0,0m-24.55,0s0,0,0,0c0,0,0,0,0,0m24.55,0s0,0,0,0c0,0,0,0,0,0m-24.55,0s0,0,0,0c0,0,0,0,0,0m24.55,0s0,0,0,0c0,0,0,0,0,0m-24.55,0s0,0,0,0c0,0,0,0,0,0m24.55,0s0,0,0,0c0,0,0,0,0,0m-24.55,0s0,0,0,0c0,0,0,0,0,0m24.55,0s0,0,0,0c0,0,0,0,0,0m-24.55,0h0m24.56,0s0,0,0,0c0,0,0,0,0,0m-24.55,0h0m24.55,0s0,0,0,0c0,0,0,0,0,0m-24.55,0s0,0,0,0c0,0,0,0,0,0m24.55,0s0,0,0,0c0,0,0,0,0,0m-24.55,0h0m24.56,0h0m-24.55,0h0m24.55,0s0,0,0,0c0,0,0,0,0,0m-24.55,0s0,0,0,0c0,0,0,0,0,0m24.55,0s0,0,0,0c0,0,0,0,0,0m-24.55,0h0m24.55,0s0,0,0,0c0,0,0,0,0,0m-24.55,0s0,0,0,0c0,0,0,0,0,0m24.55,0s0,0,0,0c0,0,0,0,0,0m-24.55,0s0,0,0,0c0,0,0,0,0,0m24.56,0h0m-24.55,0h0m24.55,0s0,0,0,0c0,0,0,0,0,0m-24.55,0s0,0,0,0c0,0,0,0,0,0m24.55,0s0,0,0,0c0,0,0,0,0,0m-24.55,0s0,0,0,0c0,0,0,0,0,0m24.56,0s0,0,0,0c0,0,0,0,0,0m-24.55,0s0,0,0,0c0,0,0,0,0,0m24.55,0s0,0,0,0c0,0,0,0,0,0m-24.55,0s0,0,0,0c0,0,0,0,0,0m24.55,0h0m-24.55,0h0m24.56,0s0,0,0,0c0,0,0,0,0,0m-24.55,0s0,0,0,0c0,0,0,0,0,0m-24.39,0h0m.04,0h0m48.91,0h0m-24.55,0h0m-24.39,0h0m.03,0s0,0,0,0c0,0,0,0,0,0m48.92,0s0,0,0,0c0,0,0,0,0,0m-24.55,0s0,0,0,0c0,0,0,0,0,0m-24.39,0s0,0,0,0c0,0,0,0,0,0m0,0h0m.02,0h0m48.93,0h0m-24.55,0h0m-24.39,0h0m48.95,0h0m-24.55,0h0m24.55-6.95c-.38,0-.74,.07-1.08,.17-.33,.09-.65,.23-.94,.4-.47,.28-.87,.64-1.19,1.08-.18,.24-.33,.5-.45,.78-.07,.17-.12,.36-.17,.55h-16.88c-.18-.69-.53-1.32-1.02-1.81-.72-.72-1.71-1.16-2.81-1.16-.38,0-.74,.07-1.08,.17-.33,.09-.65,.23-.94,.4-.47,.28-.87,.64-1.19,1.08-.18,.24-.33,.5-.45,.78-.07,.17-.12,.36-.17,.55H22.89c-.05-.19-.1-.37-.17-.55-.3-.71-.81-1.32-1.44-1.75s-1.4-.68-2.22-.68c-1.37,0-2.58,.7-3.3,1.75-.14,.21-.27,.44-.37,.68-.2,.48-.31,1-.31,1.55s.11,1.07,.31,1.55c.1,.24,.22,.46,.37,.68,.71,1.06,1.92,1.75,3.3,1.75,.82,0,1.59-.25,2.22-.68s1.14-1.04,1.44-1.75c.07-.17,.12-.36,.17-.55h16.73c.05,.19,.1,.37,.17,.55,.6,1.43,2.02,2.43,3.66,2.43,.34,0,.66-.06,.98-.14,1.4-.36,2.49-1.45,2.86-2.84h16.88c.05,.19,.1,.37,.17,.55,.6,1.43,2.02,2.43,3.66,2.43h0c.34,0,.66-.06,.98-.14,1.47-.37,2.61-1.55,2.92-3.04,.05-.26,.08-.53,.08-.8s-.03-.54-.08-.8c-.09-.43-.26-.82-.47-1.18-.69-1.18-1.96-1.99-3.43-1.99h0Zm-48.95,5.95c-1.09,0-1.98-.89-1.98-1.98s.89-1.98,1.98-1.98,1.98,.89,1.98,1.98-.89,1.98-1.98,1.98h0Zm48.95,0c-1.09,0-1.98-.89-1.98-1.98s.89-1.98,1.98-1.98,1.98,.89,1.98,1.98-.89,1.98-1.98,1.98h0Zm-24.55,0c-1.09,0-1.98-.89-1.98-1.98s.89-1.98,1.98-1.98,1.98,.89,1.98,1.98-.89,1.98-1.98,1.98h0Z"/></g></g></g><g><path class="cls-2" d="M105.97,19.4h-2.64v10.8h2.62c2.62,0,4.83-1.43,4.83-5.26,0-4.02-2.24-5.53-4.8-5.53Z"/><path class="cls-2" d="M154.58,5.76H77.98c-.27,0-.35,.35-.11,.48,6.65,3.54,11.2,10.53,11.2,18.57s-4.55,15.04-11.2,18.58c-.24,.13-.15,.48,.11,.48h77.07c10.75,0,19.45-8.95,19.04-19.79-.39-10.31-9.19-18.32-19.51-18.32Zm-48.26,28.49h-5.33c-1.1,0-1.99-.89-1.99-1.99V15.35h7.26c5.32,0,8.88,3.72,8.88,9.53s-3.51,9.37-8.83,9.37Zm39.37-1.98c0,1.09-.89,1.98-1.98,1.98h-2.33v-8.8s-.82,1.86-1.63,3.64c0,0-1.07,2.39-1.34,3.02q-.28,.63-.92,.63h-1.29q-.61,0-.92-.63l-1.34-2.99c-.84-1.83-1.64-3.67-1.64-3.67v6.81c0,1.1-.87,1.99-1.97,1.99h-14.15V15.35h2.33c1.1,0,1.99,.89,1.99,1.99v12.86h7.56V15.35h2.73q1.13,0,1.61,.99c.44,.91,3.91,7.96,4.5,9.17,.04,.07,.14,.07,.17,0,.59-1.21,3.99-8.28,4.46-9.17,.52-.99,.53-.99,1.61-.99h.54c1.1,0,1.99,.89,1.99,1.99v14.93Zm7.93,2.09c-1.67,0-3.89-.33-5.54-.87-.69-.23-1.15-.87-1.15-1.6v-2.99c1.85,.99,4.59,1.72,6.62,1.72,1.44,0,2.33-.56,2.33-1.71,0-1.64-1.83-1.75-3.86-2.43-2.27-.76-5.09-1.93-5.09-5.77,0-3.45,2.21-5.35,6.2-5.35,1.54,0,3.52,.36,4.91,.78,.72,.22,1.21,.87,1.21,1.62v2.81c-1.23-.65-4.23-1.45-5.98-1.45-1.44,0-2.06,.55-2.06,1.54,0,1.46,1.46,1.77,3.81,2.48,2.45,.73,5.12,1.88,5.12,5.72s-2.39,5.51-6.52,5.51Z"/></g></g></svg>