<?xml version="1.0" encoding="UTF-8"?><svg id="Layer_2" xmlns="http://www.w3.org/2000/svg" viewBox="0 0 87.13 79.86"><defs><style>.cls-1{fill:#fff;}</style></defs><g id="final"><g><path class="cls-1" d="M42.68,43.86h-5.23c-.55,0-1-.45-1-1s.45-1,1-1h5.23c.55,0,1,.45,1,1s-.45,1-1,1Z"/><g><path class="cls-1" d="M68.07,43.86h-20.35c-.55,0-1-.45-1-1s.45-1,1-1h20.35c9.4,0,17.05-7.65,17.05-17.05s-7.65-17.05-17.05-17.05h-4.58c-.55,0-1-.45-1-1V3.03l-4.86,3.74,6.48,5.09c.43,.34,.51,.97,.17,1.4-.34,.43-.97,.51-1.4,.17l-7.49-5.88c-.24-.19-.38-.48-.38-.79s.15-.6,.39-.79L62.88,.21c.3-.23,.71-.27,1.05-.1,.34,.17,.56,.52,.56,.9V5.76h3.58c10.5,0,19.05,8.55,19.05,19.05s-8.55,19.05-19.05,19.05Z"/><path class="cls-1" d="M24.93,49.02c-.16,0-.32-.04-.47-.12-.32-.17-.53-.51-.53-.88v-4.16h-4.8C8.62,43.86,.08,35.32,.08,24.81S8.62,5.76,19.13,5.76h22.09c.55,0,1,.45,1,1s-.45,1-1,1H19.13C9.73,7.76,2.08,15.41,2.08,24.81s7.65,17.05,17.05,17.05h5.8c.55,0,1,.45,1,1v3.29l5.04-3.35-6.65-5.08c-.44-.33-.52-.96-.19-1.4,.33-.44,.96-.53,1.4-.19l7.76,5.93c.26,.2,.4,.5,.39,.83,0,.32-.18,.62-.45,.8l-7.76,5.16c-.17,.11-.36,.17-.55,.17Z"/><path class="cls-1" d="M51.21,7.76h-5.28c-.55,0-1-.45-1-1s.45-1,1-1h5.28c.55,0,1,.45,1,1s-.45,1-1,1Z"/><path class="cls-1" d="M71.97,24.01c-.09-.43-.26-.82-.47-1.18-.69-1.18-1.96-1.99-3.43-1.99-.38,0-.74,.07-1.08,.17-.33,.09-.65,.23-.94,.4-.47,.28-.87,.64-1.19,1.08-.18,.24-.33,.5-.45,.78-.07,.17-.12,.36-.17,.55h-16.88c-.18-.69-.53-1.32-1.02-1.81-.72-.72-1.71-1.16-2.81-1.16-.38,0-.74,.07-1.08,.17-.33,.09-.65,.23-.94,.4-.47,.28-.87,.64-1.19,1.08-.18,.24-.33,.5-.45,.78-.07,.17-.12,.36-.17,.55H22.96c-.05-.19-.1-.37-.17-.55-.3-.71-.81-1.32-1.44-1.75s-1.4-.68-2.22-.68c-1.37,0-2.58,.7-3.3,1.75-.14,.21-.27,.44-.37,.68-.2,.48-.31,1-.31,1.55s.11,1.07,.31,1.55c.1,.24,.22,.46,.37,.68,.71,1.06,1.92,1.75,3.3,1.75,.82,0,1.59-.25,2.22-.68s1.14-1.04,1.44-1.75c.07-.17,.12-.36,.17-.55h16.73c.05,.19,.1,.37,.17,.55,.6,1.43,2.02,2.43,3.66,2.43,.34,0,.66-.06,.98-.14,1.4-.36,2.49-1.45,2.86-2.84h16.88c.05,.19,.1,.37,.17,.55,.6,1.43,2.02,2.43,3.66,2.43h0c.34,0,.66-.06,.98-.14,1.47-.37,2.61-1.55,2.92-3.04,.05-.26,.08-.53,.08-.8s-.03-.54-.08-.8Zm-52.84,2.78c-1.09,0-1.98-.89-1.98-1.98s.89-1.98,1.98-1.98,1.98,.89,1.98,1.98-.89,1.98-1.98,1.98Zm24.4,0c-1.09,0-1.98-.89-1.98-1.98s.89-1.98,1.98-1.98,1.98,.89,1.98,1.98-.89,1.98-1.98,1.98Zm24.55,0c-1.09,0-1.98-.89-1.98-1.98s.89-1.98,1.98-1.98,1.98,.89,1.98,1.98-.89,1.98-1.98,1.98Z"/></g></g><g><path class="cls-1" d="M20.07,57.18h-2.64v10.8h2.62c2.62,0,4.83-1.43,4.83-5.26,0-4.02-2.24-5.53-4.8-5.53Z"/><path class="cls-1" d="M86.57,34.66c-3.54,6.65-10.53,11.2-18.57,11.2H33.6l-7.01,4.65c-.49,.33-1.07,.5-1.66,.5-.5,0-.99-.12-1.42-.36-.97-.52-1.58-1.53-1.58-2.64v-2.16h-2.88c-.67,0-1.33-.04-1.98-.1-.07,0-.13-.01-.2-.02-7.12-.74-13.19-5.04-16.4-11.1-.12-.23-.46-.15-.46,.11v26.05c0,10.52,8.53,19.05,19.05,19.05h48.95c10.52,0,19.05-8.53,19.05-19.05v-26.03c0-.27-.35-.35-.48-.11ZM20.42,72.03h-5.33c-1.1,0-1.99-.89-1.99-1.99v-16.91h7.26c5.32,0,8.88,3.72,8.88,9.53s-3.51,9.37-8.83,9.37Zm39.37-1.98c0,1.09-.89,1.98-1.98,1.98h-2.33v-8.8s-.82,1.86-1.63,3.64c0,0-1.07,2.39-1.34,3.02q-.28,.63-.92,.63h-1.29q-.61,0-.92-.63l-1.34-2.99c-.84-1.83-1.64-3.67-1.64-3.67v6.81c0,1.1-.87,1.99-1.97,1.99h-14.15v-18.89h2.33c1.1,0,1.99,.89,1.99,1.99v12.86h7.56v-14.85h2.73q1.13,0,1.61,.99c.44,.91,3.91,7.96,4.5,9.17,.04,.07,.14,.07,.17,0,.59-1.21,3.99-8.28,4.46-9.17,.52-.99,.53-.99,1.61-.99h.54c1.1,0,1.99,.89,1.99,1.99v14.93Zm7.93,2.09c-1.67,0-3.89-.33-5.54-.87-.69-.23-1.15-.87-1.15-1.6v-2.99c1.85,.99,4.59,1.72,6.62,1.72,1.44,0,2.33-.56,2.33-1.71,0-1.64-1.83-1.75-3.86-2.43-2.27-.76-5.09-1.93-5.09-5.77,0-3.45,2.21-5.35,6.2-5.35,1.54,0,3.52,.36,4.91,.78,.72,.22,1.21,.87,1.21,1.62v2.81c-1.23-.65-4.23-1.45-5.98-1.45-1.44,0-2.06,.55-2.06,1.54,0,1.46,1.46,1.77,3.81,2.48,2.45,.73,5.12,1.88,5.12,5.72s-2.39,5.51-6.52,5.51Z"/></g></g></svg>